<?xml version="1.0" encoding="UTF-8"?>
<svg xmlns="http://www.w3.org/2000/svg" width="132" height="34" viewBox="0 0 132 34" fill="none">
  <g clip-path="url(#clip0_517_1039)">
    <path d="M33.362 9.26137C32.4345 9.79907 31.6611 10.5341 31.042 11.4686V8.63477H25.752V25.6267H31.042V17.7389C31.042 16.3383 31.3725 15.3583 32.0357 14.7989C32.6922 14.2416 33.6815 13.962 35.0057 13.962H36.4576V8.63477C35.323 8.63477 34.2918 8.72366 33.3642 9.26137H33.362Z" fill="#003D29"></path>
    <path d="M49.4482 8.63477V17.8625C49.4482 19.0008 49.1508 19.8832 48.5537 20.5098C47.9522 21.1408 47.1392 21.453 46.1081 21.453C45.0769 21.453 44.2904 21.1408 43.6933 20.5098C43.0962 19.8832 42.7944 19.0008 42.7944 17.8625V8.63477H37.5352V18.5606C37.5352 20.0458 37.815 21.3337 38.3724 22.4308C38.9276 23.5257 39.7142 24.3627 40.7233 24.9437C41.7324 25.5226 42.8979 25.811 44.2221 25.811C45.3347 25.811 46.3482 25.5833 47.2692 25.1259C48.1836 24.6684 48.915 24.0635 49.4482 23.3154V25.6289H54.7427V8.63477H49.4482Z" fill="#003D29"></path>
    <path d="M73.5337 12.5132C72.8639 11.1928 71.9518 10.1781 70.7973 9.46908C69.6405 8.75792 68.3516 8.40234 66.9305 8.40234C65.7099 8.40234 64.6479 8.64301 63.7424 9.13302C62.8346 9.61869 62.123 10.2583 61.6074 11.0497V8.64301H56.3174V33.7331H61.6074V23.2586C62.123 24.0327 62.8413 24.6636 63.76 25.1493C64.6744 25.6349 65.7319 25.88 66.9305 25.88C68.3538 25.88 69.6427 25.5157 70.7973 24.798C71.954 24.0782 72.8639 23.0505 73.5337 21.7236C74.2035 20.3923 74.5384 18.8573 74.5384 17.1097C74.5384 15.3622 74.2035 13.8314 73.5337 12.5132ZM68.041 20.2015C67.2985 20.9625 66.3995 21.3441 65.3508 21.3441C64.302 21.3441 63.4031 20.9669 62.6738 20.2145C61.9379 19.4665 61.5744 18.4388 61.5744 17.1401C61.5744 15.8413 61.9401 14.818 62.6738 14.0656C63.4053 13.3132 64.2976 12.9403 65.3508 12.9403C66.4039 12.9403 67.3227 13.3089 68.0586 14.0483C68.7901 14.7919 69.1536 15.811 69.1536 17.1097C69.1536 18.4084 68.7835 19.4405 68.041 20.2015Z" fill="#003D29"></path>
    <path d="M88.2105 8.63498V11.0417C87.717 10.2503 87.0075 9.61283 86.091 9.12282C85.1722 8.63715 84.1058 8.39648 82.8852 8.39648C81.4619 8.39648 80.173 8.75206 79.0185 9.46322C77.864 10.1744 76.9518 11.1891 76.282 12.5073C75.6122 13.8256 75.2773 15.3585 75.2773 17.1039C75.2773 18.8492 75.6122 20.3865 76.282 21.7177C76.9518 23.0446 77.864 24.0723 79.0185 24.7922C80.1752 25.512 81.4553 25.8698 82.8566 25.8698C84.0728 25.8698 85.1436 25.6291 86.0579 25.1434C86.9767 24.6534 87.695 24.0138 88.2105 23.2224V25.6291H93.5006V8.63498H88.2105ZM87.1111 20.2043C86.3796 20.9567 85.4873 21.3339 84.4341 21.3339C83.381 21.3339 82.4908 20.9523 81.7616 20.1913C81.0257 19.4303 80.6621 18.3982 80.6621 17.0995C80.6621 15.8008 81.0279 14.7817 81.7616 14.0381C82.493 13.2987 83.3854 12.9258 84.4341 12.9258C85.4829 12.9258 86.3818 13.3031 87.1111 14.0554C87.8426 14.8034 88.2105 15.8311 88.2105 17.1299C88.2105 18.4286 87.8404 19.4563 87.1111 20.2043Z" fill="#003D29"></path>
    <path d="M107.484 8.63498V11.0417C106.991 10.2503 106.286 9.61283 105.365 9.12282C104.451 8.63715 103.38 8.39648 102.164 8.39648C100.74 8.39648 99.4513 8.75206 98.2968 9.46322C97.1423 10.1744 96.2301 11.1891 95.5604 12.5073C94.8906 13.8277 94.5557 15.3585 94.5557 17.1039C94.5557 18.8492 94.8906 20.3865 95.5604 21.7177C96.2301 23.0446 97.1423 24.0723 98.2968 24.7922C99.4535 25.512 100.742 25.8698 102.164 25.8698C103.38 25.8698 104.442 25.6248 105.352 25.1261C106.259 24.6274 106.967 23.9834 107.482 23.1942V25.6009C107.482 26.9582 107.161 27.9469 106.511 28.5691C105.858 29.1871 104.99 29.4949 103.893 29.4949C102.985 29.4949 102.221 29.3085 101.602 28.9334C100.983 28.5583 100.593 28.0444 100.43 27.394H95.199C95.426 29.4234 96.3337 31.0343 97.9245 32.2225C99.5108 33.4063 101.586 34.0026 104.142 34.0026C106.059 34.0026 107.661 33.6253 108.952 32.8729C110.241 32.1249 111.204 31.1146 111.831 29.844C112.459 28.5756 112.777 27.1576 112.777 25.5987V8.63498H107.482H107.484ZM106.389 20.2043C105.654 20.9567 104.766 21.3339 103.712 21.3339C102.659 21.3339 101.769 20.9523 101.035 20.1913C100.304 19.4303 99.9405 18.3982 99.9405 17.0995C99.9405 15.8008 100.306 14.7817 101.035 14.0381C101.771 13.2987 102.659 12.9258 103.712 12.9258C104.766 12.9258 105.656 13.303 106.389 14.0554C107.121 14.8034 107.484 15.8311 107.484 17.1299C107.484 18.4286 107.119 19.4563 106.389 20.2043Z" fill="#003D29"></path>
    <path d="M130.821 12.5174C130.035 11.1905 128.964 10.1715 127.602 9.46029C126.24 8.74913 124.714 8.39355 123.026 8.39355C121.338 8.39355 119.807 8.74913 118.445 9.46029C117.084 10.1715 116.009 11.1905 115.226 12.5174C114.444 13.8487 114.05 15.3837 114.05 17.1313C114.05 18.8788 114.44 20.4377 115.215 21.7581C115.984 23.0807 117.051 24.0933 118.399 24.8023C119.747 25.5178 121.27 25.869 122.962 25.869C124.654 25.869 126.185 25.5178 127.556 24.8023C128.926 24.0911 130.01 23.0721 130.806 21.7451C131.601 20.4182 132 18.8788 132 17.1313C132 15.3837 131.605 13.8487 130.823 12.5174H130.821ZM125.544 20.2686C124.835 20.995 123.971 21.3635 122.962 21.3635C121.953 21.3635 121.109 20.995 120.439 20.2686C119.769 19.5379 119.435 18.4929 119.435 17.1313C119.435 15.7697 119.778 14.7008 120.457 13.9809C121.136 13.2611 121.99 12.899 123.026 12.899C124.061 12.899 124.888 13.2676 125.579 13.9939C126.267 14.7246 126.615 15.774 126.615 17.1313C126.615 18.4885 126.258 19.5379 125.544 20.2686Z" fill="#003D29"></path>
    <path d="M24.2976 12.1449V13.0251C24.2976 15.7961 23.7953 18.142 22.7884 20.0587C21.7881 21.9775 20.3868 23.4367 18.5978 24.4275C16.8065 25.4206 14.7222 25.9171 12.3449 25.9171C10.5955 25.9171 8.97171 25.6179 7.46247 25.0173C5.95764 24.421 4.64669 23.5798 3.53404 22.5022C2.42139 21.4246 1.5533 20.1519 0.929779 18.6927C0.308457 17.2249 0 15.6421 0 13.9423C0 12.2424 0.321677 10.6597 0.962828 9.19832C1.60839 7.73914 2.50952 6.47076 3.66624 5.38885C4.82295 4.31127 6.17135 3.47219 7.70924 2.8716C8.97391 2.37726 10.3135 2.08889 11.7192 2V7.2513C10.8092 7.34887 9.96979 7.61122 9.20085 8.03835C8.19616 8.5934 7.40518 9.37828 6.82793 10.393C6.24847 11.4077 5.95984 12.5785 5.95984 13.9076C5.95984 15.2367 6.23084 16.4487 6.77725 17.4721C7.32366 18.4998 8.08379 19.2911 9.05543 19.844C10.0271 20.4012 11.1441 20.6766 12.411 20.6766C13.6779 20.6766 14.7531 20.4446 15.6344 19.9741C16.5201 19.5058 17.1899 18.8163 17.6504 17.897C17.7627 17.678 17.8575 17.4482 17.9434 17.2075L11.7258 17.1989V12.1405H24.2998L24.2976 12.1449Z" fill="#003D29"></path>
    <path d="M22.2908 6.38219L18.5695 10.0442L18.488 9.96401L14.8438 6.38219L18.5695 2.71582L19.6359 3.76738L19.6425 3.77172L22.1828 6.27595L22.2908 6.38219Z" fill="#F37121"></path>
  </g>
  <defs>
    <clipPath id="clip0_517_1039">
      <rect width="132" height="32" fill="white" transform="translate(0 2)"></rect>
    </clipPath>
  </defs>
</svg>
